<svg width="464" height="90" viewBox="0 0 464 90" fill="none" xmlns="http://www.w3.org/2000/svg">
<g clip-path="url(#clip0_1208_1716)">
<path d="M146.186 25.5772C146.186 31.7362 141.88 34.974 135.171 34.974C133.677 34.9677 132.184 34.8825 130.699 34.7188V17.9313C132.507 17.6256 134.338 17.4871 136.171 17.5178C142.213 17.5178 146.186 20.5093 146.186 25.5772ZM164.663 66.2176L150.43 42.6991C156.972 38.7926 160.866 32.3081 160.866 25.1021C160.866 13.9632 153.412 4.90947 134.557 4.90947C128.577 4.8937 122.601 5.22568 116.659 5.90371V66.2176H130.699V46.2713C132.69 46.3593 133.847 46.4385 135.917 46.4385C136.794 46.4385 137.495 46.4385 138.32 46.3593L148.676 66.2176H164.663Z" fill="#003770"/>
<path d="M212.701 18.2656V5.30542H162.172V18.2656H180.395V66.2175H194.478V18.2656H212.701Z" fill="#003770"/>
<path d="M268.027 41.4497V5.30542H253.908V40.4995C253.908 49.1396 250.269 54.3747 242.315 54.3747C234.361 54.3747 230.634 49.1396 230.634 40.4995V5.30542H216.595V41.4497C216.595 58.4045 225.697 67.2118 242.026 67.2118C258.354 67.2118 268.036 58.4133 268.036 41.4497" fill="#003770"/>
<path d="M303.017 44.3621H291.003L297.054 29.739L303.017 44.3621ZM326.695 66.2176L298.115 4.80396H296.212L267.642 66.2176H281.971L286.522 55.1667H307.481L312.032 66.2176H326.695Z" fill="#003770"/>
<path d="M357.975 25.5772C357.975 31.7362 353.669 34.974 346.96 34.974C345.466 34.9677 343.973 34.8825 342.488 34.7188V17.9313C344.293 17.6259 346.121 17.4875 347.951 17.5177C354.002 17.5177 357.975 20.5093 357.975 25.5772ZM376.443 66.2176L362.202 42.6991C368.744 38.7925 372.637 32.308 372.637 25.1021C372.637 13.9631 365.183 4.90946 346.329 4.90946C340.352 4.89393 334.378 5.2259 328.439 5.90369V66.2176H342.479V46.2713C344.47 46.3593 345.627 46.4385 347.697 46.4385C348.521 46.4385 349.267 46.4385 350.1 46.3593L360.456 66.2176H376.443Z" fill="#003770"/>
<path d="M394.262 5.29663H380.179V66.2088H394.262V5.29663Z" fill="#003770"/>
<path d="M29.4828 26.8268C29.4828 32.7306 25.7558 35.9684 18.3018 35.9684C16.9776 35.9684 16.0656 35.8893 14.0837 35.8013V18.433C15.8285 18.2072 17.5861 18.0955 19.3453 18.0987C26.2995 18.0987 29.5266 21.926 29.5266 26.8268M43.9435 26.5804C43.9435 14.2625 34.4988 4.89209 16.9425 4.89209C11.2961 4.92292 5.65528 5.2548 0.0439453 5.88633V66.2177H14.0837V48.0224C15.9867 48.1016 17.3109 48.1808 19.3453 48.1808C35.4108 48.1808 43.9435 39.1271 43.9435 26.5804Z" fill="#003770"/>
<path d="M90.3243 60.2434C93.4199 56.2169 95.5827 51.5492 96.6558 46.5793C100.102 46.9929 102.338 47.4592 103.128 47.9167C100.345 53.3377 95.8394 57.6725 90.3243 60.2346M54.7295 47.9167C55.5187 47.4856 57.7636 46.9929 61.21 46.5793C62.2766 51.5498 64.4368 56.2182 67.5327 60.2434C62.0196 57.6785 57.5148 53.3445 54.7295 47.9255M53.528 25.7181C54.8171 26.3164 57.0358 26.8355 60.6225 27.2842C60.1744 29.9916 59.9485 32.7312 59.9472 35.4756C59.9447 38.2231 60.1706 40.966 60.6225 43.6758C57.0007 44.1246 54.8171 44.6349 53.528 45.242C51.1195 38.9583 51.1195 32.0017 53.528 25.7181ZM67.4275 10.7606C67.1118 11.1565 66.7961 11.5613 66.4892 11.9924C66.374 12.1513 66.2912 12.3313 66.2454 12.5223C66.1996 12.7133 66.1917 12.9115 66.2223 13.1055C66.2528 13.2996 66.3211 13.4857 66.4233 13.6532C66.5256 13.8208 66.6597 13.9665 66.818 14.082C66.9764 14.1976 67.1559 14.2807 67.3462 14.3267C67.5366 14.3726 67.7341 14.3805 67.9275 14.3499C68.1209 14.3192 68.3064 14.2507 68.4734 14.1481C68.6404 14.0455 68.7856 13.911 68.9008 13.7521C70.339 11.5965 72.2808 9.82636 74.557 8.59613C75.5151 8.43704 76.4812 8.33131 77.4509 8.2794V13.7697C77.4352 13.974 77.4618 14.1793 77.5289 14.3728C77.596 14.5663 77.7023 14.7438 77.8411 14.8942C77.9798 15.0445 78.148 15.1645 78.3352 15.2465C78.5223 15.3286 78.7243 15.3709 78.9285 15.3709C79.1328 15.3709 79.3348 15.3286 79.5219 15.2465C79.7091 15.1645 79.8773 15.0445 80.016 14.8942C80.1548 14.7438 80.261 14.5663 80.3282 14.3728C80.3953 14.1793 80.4219 13.974 80.4062 13.7697V8.2794C81.3759 8.33082 82.3421 8.43655 83.3001 8.59613C85.5791 9.82578 87.5239 11.5958 88.9651 13.7521C89.1977 14.073 89.5478 14.288 89.9383 14.3499C90.3289 14.4117 90.728 14.3154 91.0478 14.082C91.3676 13.8487 91.5819 13.4974 91.6436 13.1055C91.7053 12.7136 91.6092 12.3133 91.3767 11.9924C91.0697 11.5613 90.754 11.1125 90.4383 10.7606C95.9017 13.3355 100.363 17.6508 103.128 23.0345C102.338 23.4744 100.111 23.9671 96.6734 24.3807C96.209 22.366 95.5934 20.3896 94.8318 18.4681C94.7598 18.2878 94.6532 18.1236 94.5179 17.9847C94.3827 17.8458 94.2215 17.735 94.0436 17.6586C93.8656 17.5822 93.6744 17.5417 93.4809 17.5395C93.2874 17.5372 93.0953 17.5732 92.9157 17.6454C92.736 17.7176 92.5723 17.8246 92.4339 17.9603C92.2955 18.096 92.185 18.2578 92.1089 18.4363C92.0327 18.6148 91.9924 18.8066 91.9901 19.0008C91.9879 19.1949 92.0238 19.3877 92.0957 19.5679C92.7496 21.235 93.2859 22.9461 93.7005 24.6886C90.1139 25.0054 85.624 25.2253 80.4062 25.2693V20.4478C80.4219 20.2435 80.3953 20.0381 80.3282 19.8446C80.261 19.6511 80.1548 19.4736 80.016 19.3232C79.8773 19.1729 79.7091 19.0529 79.5219 18.9709C79.3348 18.8889 79.1328 18.8465 78.9285 18.8465C78.7243 18.8465 78.5223 18.8889 78.3352 18.9709C78.148 19.0529 77.9798 19.1729 77.8411 19.3232C77.7023 19.4736 77.596 19.6511 77.5289 19.8446C77.4618 20.0381 77.4352 20.2435 77.4509 20.4478V25.2693C72.2419 25.2253 67.752 25.0054 64.1565 24.6886C64.5701 22.9448 65.1093 21.2334 65.7701 19.5679C65.8598 19.3841 65.9108 19.1836 65.9197 18.9791C65.9287 18.7745 65.8955 18.5704 65.8221 18.3793C65.7488 18.1883 65.6369 18.0145 65.4935 17.8689C65.3501 17.7232 65.1783 17.6089 64.9888 17.5329C64.7993 17.457 64.5962 17.4211 64.3923 17.4276C64.1884 17.4341 63.9879 17.4827 63.8036 17.5705C63.6193 17.6583 63.455 17.7833 63.3211 17.9378C63.1871 18.0922 63.0864 18.2728 63.0253 18.4681C62.2637 20.3896 61.6481 22.366 61.1837 24.3807C57.7549 23.9671 55.5187 23.5008 54.7295 23.0345C57.5 17.6522 61.9635 13.3378 67.4275 10.7606ZM80.4062 42.752V28.208C85.4749 28.208 90.263 27.9617 94.3056 27.5833C95.1768 32.8056 95.1768 38.1368 94.3056 43.3591C90.263 42.9807 85.4661 42.7696 80.3974 42.7344M62.8587 35.4668C62.856 32.8134 63.076 30.1645 63.5164 27.5482C67.559 27.9265 72.3471 28.1376 77.407 28.1728V42.6992C72.3383 42.6992 67.5503 42.9456 63.5076 43.3239C63.0718 40.7071 62.8547 38.0583 62.8587 35.4052M64.0951 46.2098C67.6906 45.893 72.1893 45.6643 77.407 45.6291V62.663C76.4075 62.6101 75.412 62.4984 74.4255 62.3287C69.7514 59.9531 65.9543 53.9701 64.0951 46.2098ZM83.3878 62.3287C82.3983 62.4984 81.3998 62.6101 80.3974 62.663V45.6907C85.659 45.6907 90.1139 45.9546 93.7093 46.2714C91.859 54.0317 88.0531 60.0147 83.3878 62.3903M104.32 45.2332C103.04 44.6261 100.813 44.1158 97.2258 43.667C97.6807 40.9575 97.9095 38.2146 97.9098 35.4668C97.9085 32.7224 97.6827 29.9827 97.2346 27.2754C100.856 26.8267 103.04 26.3075 104.32 25.7092C106.729 31.9929 106.729 38.9495 104.32 45.2332ZM110.555 35.4668C110.54 27.313 107.4 19.4773 101.787 13.5813C96.1731 7.68537 88.515 4.18055 80.3974 3.79218V1.51334C80.4131 1.30904 80.3866 1.10372 80.3194 0.910212C80.2523 0.716702 80.146 0.539172 80.0072 0.388821C79.8685 0.238469 79.7003 0.118521 79.5131 0.0364829C79.326 -0.0455556 79.124 -0.0878906 78.9198 -0.0878906C78.7155 -0.0878906 78.5135 -0.0455556 78.3264 0.0364829C78.1393 0.118521 77.971 0.238469 77.8323 0.388821C77.6935 0.539172 77.5873 0.716702 77.5201 0.910212C77.453 1.10372 77.4264 1.30904 77.4421 1.51334V3.79218C69.3021 4.15222 61.6146 7.64995 55.9814 13.5565C50.3483 19.463 47.2041 27.3226 47.2041 35.4976C47.2041 43.6726 50.3483 51.5323 55.9814 57.4388C61.6146 63.3453 69.3021 66.843 77.4421 67.2031V69.649C77.4708 70.0225 77.639 70.3713 77.9129 70.6258C78.1868 70.8803 78.5464 71.0217 78.9198 71.0217C79.2931 71.0217 79.6527 70.8803 79.9266 70.6258C80.2006 70.3713 80.3687 70.0225 80.3974 69.649V67.2031C88.5143 66.8126 96.1711 63.307 101.784 57.4116C107.397 51.5161 110.538 43.6816 110.555 35.5284" fill="#009FE3"/>
<path d="M432.524 67.2207C413.722 67.2207 401.708 53.671 401.708 35.8012C401.708 17.9314 414.301 4.27612 433.102 4.27612C451.904 4.27612 463.909 17.817 463.909 35.766C463.909 53.7149 451.22 67.2207 432.524 67.2207ZM432.769 16.9372C423.123 16.9372 416.704 24.8559 416.704 35.8012C416.704 46.7466 423.158 54.674 432.804 54.674C442.451 54.674 448.87 46.6938 448.87 35.8012C448.87 24.9087 442.415 16.9372 432.804 16.9372" fill="#003770"/>
<path d="M2.22721 86.8588C1.93782 86.8588 1.55197 86.8588 1.25381 86.806V89.8327H0.341797V81.351C0.990019 81.2625 1.6432 81.2155 2.29737 81.2102C4.49848 81.2102 5.58589 82.4772 5.58589 83.9377C5.58589 85.6974 4.34063 86.8588 2.24475 86.8588M2.43768 82.0549C2.04697 82.0457 1.65631 82.0752 1.27135 82.1428V85.9702C1.61186 86.012 1.95436 86.0356 2.29737 86.0406C3.8934 86.0406 4.58618 85.1607 4.58618 84.0081C4.58494 83.7345 4.52692 83.4641 4.41582 83.2142C4.30471 82.9643 4.14296 82.7403 3.94085 82.5566C3.73874 82.3728 3.5007 82.2333 3.2419 82.1469C2.98311 82.0605 2.70922 82.0292 2.43768 82.0549Z" fill="#002E6D"/>
<path d="M11.7686 89.8329V81.2632H16.7671V82.1078H12.6981V85.0641H16.3549V85.9088H12.6981V88.9883H16.7671V89.8329H11.7686Z" fill="#002E6D"/>
<path d="M28.2023 89.8327L25.9047 86.4541C25.7205 86.4541 25.5364 86.4541 25.3347 86.4541C25.133 86.4541 24.6507 86.4541 24.37 86.4541V89.8327H23.4668V81.351C24.1179 81.2618 24.774 81.2148 25.4311 81.2102C27.6322 81.2102 28.7197 82.31 28.7197 83.7794C28.7351 84.3442 28.5586 84.8976 28.2192 85.3485C27.8797 85.7994 27.3975 86.121 26.8518 86.2605L29.3335 89.8327H28.2023ZM25.5714 82.0549C25.1778 82.0458 24.7843 82.0752 24.3963 82.1428V85.6623C24.7399 85.7016 25.0853 85.7222 25.4311 85.7238C27.0272 85.7238 27.7199 84.9847 27.7199 83.8761C27.7199 82.7675 26.9745 82.1164 25.5714 82.1164" fill="#002E6D"/>
<path d="M36.3671 81.2632H35.4375V89.8329H36.3671V81.2632Z" fill="#002E6D"/>
<path d="M47.2233 89.9737C46.6562 89.9705 46.0954 89.8532 45.5741 89.6289C45.0529 89.4045 44.5817 89.0777 44.1885 88.6676C43.7953 88.2575 43.488 87.7724 43.2848 87.2412C43.0815 86.7099 42.9865 86.1432 43.0053 85.5744C42.996 85.0015 43.1001 84.4325 43.3117 83.9003C43.5232 83.3681 43.838 82.8833 44.2377 82.4741C44.6374 82.0649 45.1141 81.7393 45.6402 81.5163C46.1662 81.2934 46.7312 81.1774 47.3022 81.1752C47.8691 81.1796 48.4293 81.2976 48.95 81.5223C49.4707 81.7471 49.9413 82.074 50.3343 82.4839C50.7273 82.8937 51.0346 83.3782 51.2383 83.909C51.442 84.4397 51.5379 85.006 51.5203 85.5744C51.5296 86.1473 51.4255 86.7163 51.2139 87.2485C51.0023 87.7807 50.6876 88.2655 50.2879 88.6747C49.8881 89.084 49.4114 89.4095 48.8854 89.6325C48.3593 89.8554 47.7944 89.9714 47.2233 89.9737ZM47.2233 81.967C46.5005 81.8941 45.7727 82.0426 45.1357 82.3929C44.4986 82.7432 43.9823 83.279 43.6547 83.9295C43.3271 84.58 43.2036 85.3148 43.3004 86.0372C43.3972 86.7595 43.7099 87.4355 44.1972 87.976C44.6844 88.5166 45.3235 88.8964 46.0301 89.0654C46.7368 89.2344 47.4778 89.1847 48.1558 88.9228C48.8337 88.6609 49.4166 88.1991 49.8278 87.5982C50.239 86.9974 50.4591 86.2857 50.4592 85.5568C50.4926 85.1055 50.4343 84.6521 50.2879 84.224C50.1415 83.796 49.91 83.4022 49.6075 83.0666C49.305 82.731 48.9376 82.4604 48.5278 82.2714C48.118 82.0824 47.6742 81.9789 47.2233 81.967ZM46.8287 80.5593L46.5569 80.0401L48.6001 78.5796L49.0474 79.5122L46.8287 80.5593Z" fill="#002E6D"/>
<path d="M60.3942 89.9031C59.6235 89.8973 58.8536 89.8503 58.0879 89.7623V81.351C58.8268 81.2581 59.5707 81.2111 60.3153 81.2102C63.5161 81.2102 65.1999 83.2778 65.1999 85.4775C65.1999 87.6771 63.6038 89.8767 60.3942 89.8767M60.3942 81.9581C59.9363 81.9517 59.4787 81.9841 59.0262 82.0549V88.9617C59.5191 89.0402 60.0182 89.0726 60.517 89.0585C61.0057 89.1066 61.499 89.0464 61.962 88.882C62.4249 88.7176 62.8462 88.4531 63.1959 88.1072C63.5457 87.7614 63.8153 87.3426 63.9858 86.8805C64.1563 86.4185 64.2235 85.9245 64.1826 85.4335C64.1826 83.445 62.876 81.9581 60.3942 81.9581Z" fill="#002E6D"/>
<path d="M72.7596 81.2632H71.8301V89.8329H72.7596V81.2632Z" fill="#002E6D"/>
<path d="M83.9319 89.9737C83.3412 90.0039 82.7506 89.912 82.1968 89.7035C81.6429 89.4951 81.1377 89.1747 80.7126 88.7621C80.2874 88.3495 79.9513 87.8537 79.7252 87.3053C79.4991 86.7569 79.3877 86.1678 79.3981 85.5744C79.3978 84.9839 79.5159 84.3993 79.7456 83.8556C79.9752 83.3118 80.3115 82.8201 80.7346 82.4095C81.1577 81.999 81.6588 81.6781 82.2081 81.4661C82.7574 81.254 83.3437 81.1551 83.9319 81.1752C84.927 81.1851 85.9005 81.4681 86.7469 81.9934L86.361 82.7852C85.5953 82.3352 84.7309 82.0814 83.8442 82.0462C83.3823 82.0281 82.9218 82.1074 82.4923 82.2789C82.0629 82.4504 81.674 82.7104 81.3509 83.042C81.0278 83.3737 80.7776 83.7696 80.6165 84.2043C80.4553 84.6389 80.3868 85.1027 80.4154 85.5656C80.3942 86.0334 80.4704 86.5005 80.6392 86.9371C80.808 87.3738 81.0656 87.7703 81.3956 88.1015C81.7257 88.4326 82.1209 88.6911 82.5561 88.8604C82.9913 89.0298 83.4568 89.1063 83.9231 89.085C84.8097 89.0487 85.6738 88.7949 86.4399 88.3459L86.7381 89.1378C85.8917 89.6631 84.9183 89.9461 83.9231 89.9561" fill="#002E6D"/>
<path d="M96.5856 89.9736C96.0185 89.9703 95.4577 89.8531 94.9364 89.6287C94.4152 89.4044 93.9441 89.0776 93.5508 88.6675C93.1576 88.2574 92.8503 87.7723 92.6471 87.2411C92.4439 86.7098 92.3488 86.1431 92.3676 85.5743C92.3583 85.0014 92.4624 84.4323 92.674 83.9002C92.8856 83.368 93.2003 82.8832 93.6 82.474C93.9997 82.0648 94.4764 81.7392 95.0025 81.5162C95.5285 81.2932 96.0935 81.1773 96.6646 81.175C97.2314 81.1795 97.7916 81.2975 98.3123 81.5222C98.833 81.747 99.3036 82.0739 99.6966 82.4838C100.09 82.8936 100.397 83.3781 100.601 83.9088C100.804 84.4396 100.9 85.0059 100.883 85.5743C100.892 86.1472 100.788 86.7162 100.576 87.2484C100.365 87.7806 100.05 88.2654 99.6502 88.6746C99.2504 89.0838 98.7737 89.4094 98.2477 89.6323C97.7216 89.8553 97.1567 89.9713 96.5856 89.9736ZM96.6295 81.9669C95.9067 81.894 95.1788 82.0425 94.5418 82.3928C93.9048 82.7431 93.3885 83.2788 93.0609 83.9294C92.7333 84.5799 92.6097 85.3147 92.7066 86.0371C92.8034 86.7594 93.116 87.4353 93.6033 87.9759C94.0906 88.5165 94.7296 88.8963 95.4363 89.0653C96.1429 89.2343 96.884 89.1846 97.5619 88.9227C98.2398 88.6608 98.8228 88.199 99.234 87.5981C99.6451 86.9973 99.8653 86.2855 99.8654 85.5567C99.8975 85.1057 99.8384 84.6528 99.6915 84.2253C99.5446 83.7978 99.3131 83.4045 99.0107 83.0692C98.7084 82.7338 98.3416 82.4632 97.9324 82.2738C97.5232 82.0844 97.08 81.98 96.6295 81.9669Z" fill="#002E6D"/>
<path d="M116.071 81.2632H115.142V89.8329H116.071V81.2632Z" fill="#002E6D"/>
<path d="M129.48 90L123.929 83.3396V89.8329H122.999V81.1487L123.183 81.1047L128.664 87.6596V81.2631H129.594V89.9648L129.48 90Z" fill="#002E6D"/>
<path d="M137.39 82.1078V85.2313H141.046V86.0672H137.39V89.8329H136.46V81.2632H141.459V82.1078H137.39Z" fill="#002E6D"/>
<path d="M151.658 89.9736C151.091 89.9703 150.53 89.8531 150.009 89.6287C149.487 89.4044 149.016 89.0776 148.623 88.6675C148.23 88.2574 147.923 87.7723 147.719 87.2411C147.516 86.7098 147.421 86.1431 147.44 85.5743C147.431 85.0014 147.535 84.4323 147.746 83.9002C147.958 83.368 148.273 82.8832 148.672 82.474C149.072 82.0648 149.549 81.7392 150.075 81.5162C150.601 81.2932 151.166 81.1773 151.737 81.175C152.304 81.1795 152.864 81.2975 153.385 81.5222C153.905 81.747 154.376 82.0739 154.769 82.4838C155.162 82.8936 155.469 83.3781 155.673 83.9088C155.877 84.4396 155.972 85.0059 155.955 85.5743C155.964 86.1472 155.86 86.7162 155.648 87.2484C155.437 87.7806 155.122 88.2654 154.722 88.6746C154.323 89.0838 153.846 89.4094 153.32 89.6323C152.794 89.8553 152.229 89.9713 151.658 89.9736ZM151.658 81.9669C150.935 81.894 150.207 82.0425 149.57 82.3928C148.933 82.7431 148.417 83.2788 148.089 83.9294C147.762 84.5799 147.638 85.3147 147.735 86.0371C147.832 86.7594 148.144 87.4353 148.632 87.9759C149.119 88.5165 149.758 88.8963 150.465 89.0653C151.171 89.2343 151.912 89.1846 152.59 88.9227C153.268 88.6608 153.851 88.199 154.262 87.5981C154.674 86.9973 154.894 86.2855 154.894 85.5567C154.927 85.1054 154.869 84.652 154.723 84.2239C154.576 83.7959 154.345 83.4021 154.042 83.0665C153.74 82.7308 153.372 82.4603 152.962 82.2713C152.553 82.0823 152.109 81.9787 151.658 81.9669Z" fill="#002E6D"/>
<path d="M167.276 89.8327L165.004 86.4541C164.82 86.4541 164.636 86.4541 164.434 86.4541C164.233 86.4541 163.75 86.4541 163.47 86.4541V89.8327H162.54V81.351C163.191 81.2618 163.847 81.2148 164.504 81.2102C166.705 81.2102 167.793 82.31 167.793 83.7794C167.808 84.3442 167.632 84.8976 167.292 85.3485C166.953 85.7994 166.471 86.121 165.925 86.2605L168.407 89.8327H167.276ZM164.645 82.0549C164.251 82.0458 163.858 82.0752 163.47 82.1428V85.6623C163.813 85.7016 164.159 85.7222 164.504 85.7238C166.1 85.7238 166.793 84.9847 166.793 83.8761C166.793 82.7675 166.048 82.1164 164.645 82.1164" fill="#002E6D"/>
<path d="M181.719 89.8329L181.587 83.7795L178.562 88.953H178.43L175.387 83.7707L175.282 89.8329H174.335L174.659 81.1223L174.835 81.1047L178.535 87.554L182.148 81.1047L182.341 81.1223L182.666 89.8329H181.719Z" fill="#002E6D"/>
<path d="M195.356 89.8328L194.339 87.466H190.515L189.507 89.8328H188.542L192.374 81.1135H192.523L196.356 89.8328H195.356ZM192.427 82.9964L190.857 86.6829H194.005L192.427 82.9964Z" fill="#002E6D"/>
<path d="M204.791 82.1078V89.8329H203.862V82.1078H201.012V81.2632H207.641V82.1078H204.791Z" fill="#002E6D"/>
<path d="M214.849 81.2632H213.92V89.8329H214.849V81.2632Z" fill="#002E6D"/>
<path d="M224.855 89.9825H224.706L220.909 81.2632H221.953L224.812 88.0468L227.635 81.2632H228.653L224.855 89.9825Z" fill="#002E6D"/>
<path d="M238.22 89.9736C237.653 89.9703 237.092 89.8531 236.571 89.6287C236.05 89.4044 235.579 89.0776 235.186 88.6675C234.792 88.2574 234.485 87.7723 234.282 87.2411C234.079 86.7098 233.984 86.1431 234.002 85.5743C233.993 85.0014 234.097 84.4323 234.309 83.9002C234.52 83.368 234.835 82.8832 235.235 82.474C235.635 82.0648 236.111 81.7392 236.637 81.5162C237.163 81.2932 237.728 81.1773 238.299 81.175C238.866 81.1795 239.426 81.2975 239.947 81.5222C240.468 81.747 240.938 82.0739 241.331 82.4838C241.724 82.8936 242.032 83.3781 242.235 83.9088C242.439 84.4396 242.535 85.0059 242.517 85.5743C242.527 86.1472 242.423 86.7162 242.211 87.2484C241.999 87.7806 241.685 88.2654 241.285 88.6746C240.885 89.0838 240.409 89.4094 239.882 89.6323C239.356 89.8553 238.791 89.9713 238.22 89.9736ZM238.264 81.9669C237.542 81.8958 236.814 82.0459 236.179 82.3975C235.543 82.749 235.028 83.2855 234.701 83.9363C234.375 84.5872 234.253 85.3219 234.351 86.0437C234.449 86.7656 234.762 87.4408 235.25 87.9804C235.738 88.5201 236.377 88.8989 237.084 89.0671C237.79 89.2352 238.531 89.1848 239.208 88.9225C239.886 88.6602 240.468 88.1982 240.879 87.5974C241.289 86.9966 241.509 86.2852 241.509 85.5567C241.542 85.1047 241.484 84.6505 241.337 84.2219C241.19 83.7933 240.958 83.3991 240.654 83.0634C240.351 82.7276 239.982 82.4573 239.571 82.2688C239.161 82.0803 238.716 81.9776 238.264 81.9669Z" fill="#002E6D"/>
<path d="M259.021 89.9031C258.25 89.8973 257.481 89.8503 256.715 89.7623V81.351C257.454 81.2581 258.198 81.2111 258.942 81.2102C262.143 81.2102 263.827 83.2778 263.827 85.4775C263.827 87.6771 262.231 89.8767 259.021 89.8767M259.021 81.9581C258.563 81.9517 258.106 81.9841 257.653 82.0549V88.9617C258.146 89.0402 258.645 89.0726 259.144 89.0585C259.633 89.1066 260.126 89.0464 260.589 88.882C261.052 88.7176 261.473 88.4531 261.823 88.1072C262.173 87.7614 262.442 87.3426 262.613 86.8805C262.783 86.4185 262.85 85.9245 262.81 85.4335C262.81 83.445 261.503 81.9581 259.021 81.9581Z" fill="#002E6D"/>
<path d="M270.403 89.8329V81.2632H275.402V82.1078H271.333V85.0641H274.99V85.9088H271.333V88.9883H275.402V89.8329H270.403Z" fill="#002E6D"/>
<path d="M295.212 89.8329V85.9088H290.643V89.8329H289.714V81.2632H290.643V85.0641H295.212V81.2632H296.142V89.8329H295.212Z" fill="#002E6D"/>
<path d="M306.103 89.9737C305.673 90.0145 305.239 89.9594 304.832 89.8124C304.425 89.6654 304.056 89.4302 303.75 89.1235C303.444 88.8167 303.21 88.446 303.063 88.0379C302.917 87.6297 302.862 87.1941 302.903 86.7622V81.272H303.832V86.6918C303.832 88.4515 304.771 89.1378 306.103 89.1378C306.424 89.1633 306.746 89.1163 307.046 89.0003C307.346 88.8842 307.616 88.7021 307.837 88.4674C308.057 88.2326 308.222 87.9513 308.32 87.644C308.418 87.3367 308.445 87.0113 308.401 86.6918V81.272H309.331V86.7622C309.358 87.1934 309.293 87.6254 309.14 88.0293C308.987 88.4332 308.75 88.7995 308.444 89.1037C308.139 89.408 307.772 89.643 307.368 89.7931C306.964 89.9431 306.533 90.0047 306.103 89.9737Z" fill="#002E6D"/>
<path d="M319.241 82.1078V89.8329H318.311V82.1078H315.461V81.2632H322.082V82.1078H319.241Z" fill="#002E6D"/>
<path d="M331.956 89.9736C331.365 90.0039 330.775 89.912 330.222 89.7034C329.668 89.4949 329.164 89.1743 328.739 88.7616C328.315 88.3489 327.979 87.853 327.754 87.3046C327.529 86.7563 327.419 86.1673 327.431 85.5744C327.43 84.9846 327.548 84.4008 327.777 83.8577C328.006 83.3145 328.342 82.8232 328.764 82.4128C329.186 82.0024 329.686 81.6813 330.234 81.4687C330.783 81.2561 331.368 81.1562 331.956 81.1751C332.953 81.1853 333.93 81.4682 334.779 81.9934L334.393 82.7852C333.628 82.3352 332.763 82.0814 331.877 82.0461C331.414 82.0268 330.952 82.1051 330.522 82.276C330.091 82.447 329.702 82.7068 329.377 83.0386C329.053 83.3704 328.802 83.7668 328.641 84.2021C328.479 84.6374 328.41 85.1019 328.439 85.5656C328.419 86.033 328.496 86.4996 328.666 86.9356C328.835 87.3716 329.092 87.7676 329.422 88.0985C329.752 88.4293 330.147 88.6878 330.581 88.8576C331.016 89.0275 331.481 89.1049 331.947 89.085C332.833 89.0498 333.698 88.7959 334.464 88.3459L334.77 89.1377C333.921 89.6629 332.945 89.9458 331.947 89.956" fill="#002E6D"/>
<path d="M346.548 89.8329V85.9088H341.979V89.8329H341.05V81.2632H341.979V85.0641H346.548V81.2632H347.478V89.8329H346.548Z" fill="#002E6D"/>
<path d="M355.335 81.2632H354.405V89.8329H355.335V81.2632Z" fill="#002E6D"/>
<path d="M364.087 89.9735C363.201 89.9711 362.338 89.6945 361.614 89.1816L362.07 88.3634C362.667 88.8159 363.384 89.0794 364.131 89.12C364.338 89.1413 364.547 89.1182 364.744 89.0522C364.941 88.9863 365.122 88.8791 365.274 88.7376C365.427 88.5961 365.548 88.4237 365.629 88.2317C365.71 88.0398 365.749 87.8327 365.745 87.6243C365.745 86.8764 365.455 86.4365 364.052 85.8118C362.649 85.1871 362.026 84.492 362.026 83.4626C362.042 83.1346 362.123 82.813 362.264 82.5169C362.406 82.2208 362.605 81.9562 362.851 81.7388C363.096 81.5214 363.382 81.3555 363.692 81.2511C364.003 81.1467 364.331 81.1059 364.657 81.131C365.332 81.1349 365.99 81.3368 366.551 81.7117L366.13 82.5035C365.683 82.1786 365.148 81.9976 364.596 81.9844C364.393 81.9581 364.187 81.9756 363.991 82.0357C363.795 82.0958 363.614 82.1971 363.461 82.3329C363.307 82.4686 363.184 82.6357 363.1 82.8229C363.016 83.0102 362.973 83.2132 362.974 83.4186C362.974 84.0169 363.386 84.492 364.429 84.9759C366.183 85.7766 366.718 86.3749 366.718 87.5187C366.713 87.8553 366.64 88.1874 366.503 88.4949C366.367 88.8025 366.17 89.0792 365.924 89.3085C365.678 89.5377 365.389 89.7148 365.073 89.8291C364.758 89.9434 364.422 89.9925 364.087 89.9735Z" fill="#002E6D"/>
<path d="M376.917 89.9736C376.35 89.9692 375.79 89.8511 375.27 89.6262C374.75 89.4014 374.28 89.0743 373.888 88.6643C373.495 88.2543 373.189 87.7697 372.986 87.239C372.783 86.7083 372.689 86.1423 372.707 85.5743C372.698 85.0014 372.802 84.4323 373.014 83.9002C373.225 83.368 373.54 82.8832 373.94 82.474C374.34 82.0648 374.816 81.7392 375.342 81.5162C375.868 81.2932 376.433 81.1773 377.004 81.175C377.571 81.1795 378.131 81.2975 378.652 81.5222C379.173 81.747 379.643 82.0739 380.036 82.4838C380.429 82.8936 380.737 83.3781 380.94 83.9088C381.144 84.4396 381.24 85.0059 381.222 85.5743C381.232 86.1479 381.127 86.7177 380.915 87.2504C380.703 87.7832 380.388 88.2684 379.987 88.6777C379.586 89.0871 379.109 89.4124 378.581 89.6349C378.054 89.8573 377.488 89.9725 376.917 89.9736ZM376.969 81.9669C376.247 81.894 375.519 82.0425 374.882 82.3928C374.245 82.7431 373.728 83.2788 373.401 83.9294C373.073 84.5799 372.95 85.3147 373.046 86.0371C373.143 86.7594 373.456 87.4353 373.943 87.9759C374.43 88.5165 375.069 88.8963 375.776 89.0653C376.483 89.2343 377.224 89.1846 377.902 88.9227C378.58 88.6608 379.163 88.199 379.574 87.5981C379.985 86.9973 380.205 86.2855 380.205 85.5567C380.239 85.1054 380.18 84.652 380.034 84.2239C379.888 83.7959 379.656 83.4021 379.354 83.0665C379.051 82.7308 378.684 82.4603 378.274 82.2713C377.864 82.0823 377.42 81.9787 376.969 81.9669Z" fill="#002E6D"/>
<path d="M394.272 90L388.729 83.3396V89.8329H387.791V81.1487L387.984 81.1047L393.456 87.6596V81.2631H394.386V89.9648L394.272 90Z" fill="#002E6D"/>
<path d="M410.775 86.8588C410.486 86.8588 410.1 86.8588 409.81 86.806V89.8327H408.881V81.351C409.529 81.2618 410.182 81.2148 410.836 81.2102C413.038 81.2102 414.116 82.4772 414.116 83.9377C414.116 85.6974 412.871 86.8588 410.775 86.8588ZM410.977 82.0549C410.586 82.0454 410.195 82.0748 409.81 82.1428V85.9702C410.151 86.0124 410.493 86.0359 410.836 86.0406C412.432 86.0406 413.116 85.1607 413.116 84.0081C413.116 83.7349 413.06 83.4647 412.949 83.2148C412.839 82.9649 412.678 82.7408 412.477 82.5569C412.276 82.3731 412.038 82.2334 411.78 82.147C411.521 82.0605 411.248 82.0292 410.977 82.0549Z" fill="#002E6D"/>
<path d="M424.227 89.9736C423.66 89.9703 423.099 89.8531 422.578 89.6287C422.057 89.4044 421.586 89.0776 421.192 88.6675C420.799 88.2574 420.492 87.7723 420.289 87.2411C420.085 86.7098 419.99 86.1431 420.009 85.5743C420 85.0014 420.104 84.4323 420.316 83.9002C420.527 83.368 420.842 82.8832 421.242 82.474C421.641 82.0648 422.118 81.7392 422.644 81.5162C423.17 81.2932 423.735 81.1773 424.306 81.175C424.873 81.1795 425.433 81.2975 425.954 81.5222C426.475 81.747 426.945 82.0739 427.338 82.4838C427.731 82.8936 428.039 83.3781 428.242 83.9088C428.446 84.4396 428.542 85.0059 428.524 85.5743C428.534 86.1472 428.429 86.7162 428.218 87.2484C428.006 87.7806 427.692 88.2654 427.292 88.6746C426.892 89.0838 426.415 89.4094 425.889 89.6323C425.363 89.8553 424.798 89.9713 424.227 89.9736ZM424.227 81.9669C423.504 81.894 422.777 82.0425 422.14 82.3928C421.503 82.7431 420.986 83.2788 420.659 83.9294C420.331 84.5799 420.208 85.3147 420.304 86.0371C420.401 86.7594 420.714 87.4353 421.201 87.9759C421.688 88.5165 422.327 88.8963 423.034 89.0653C423.741 89.2343 424.482 89.1846 425.16 88.9227C425.838 88.6608 426.421 88.199 426.832 87.5981C427.243 86.9973 427.463 86.2855 427.463 85.5567C427.497 85.1054 427.438 84.652 427.292 84.2239C427.145 83.7959 426.914 83.4021 426.611 83.0665C426.309 82.7308 425.942 82.4603 425.532 82.2713C425.122 82.0823 424.678 81.9787 424.227 81.9669Z" fill="#002E6D"/>
<path d="M439.819 89.8327L437.548 86.4541C437.364 86.4541 437.18 86.4541 436.978 86.4541C436.777 86.4541 436.294 86.4541 436.014 86.4541V89.8327H435.084V81.351C435.735 81.2618 436.391 81.2148 437.048 81.2102C439.249 81.2102 440.337 82.31 440.337 83.7794C440.352 84.3442 440.176 84.8976 439.836 85.3485C439.497 85.7994 439.015 86.121 438.469 86.2605L440.951 89.8327H439.819ZM437.189 82.0549C436.795 82.0458 436.401 82.0752 436.014 82.1428V85.6623C436.357 85.7016 436.703 85.7222 437.048 85.7238C438.644 85.7238 439.337 84.9847 439.337 83.8761C439.337 82.7675 438.592 82.1164 437.189 82.1164" fill="#002E6D"/>
<path d="M449.992 82.1078V89.8329H449.062V82.1078H446.203V81.2632H452.833V82.1078H449.992Z" fill="#002E6D"/>
<path d="M460.708 89.9735C459.825 89.9716 458.964 89.6949 458.244 89.1816L458.7 88.3634C459.295 88.8188 460.014 89.0826 460.761 89.12C460.967 89.1414 461.176 89.1184 461.372 89.0524C461.569 88.9863 461.749 88.8789 461.901 88.7373C462.053 88.5957 462.173 88.4231 462.253 88.2311C462.334 88.0392 462.372 87.8323 462.366 87.6243C462.366 86.8764 462.076 86.4365 460.673 85.8118C459.27 85.1871 458.647 84.492 458.647 83.4626C458.663 83.1346 458.744 82.813 458.885 82.5169C459.027 82.2208 459.226 81.9562 459.472 81.7388C459.717 81.5214 460.003 81.3555 460.314 81.2511C460.624 81.1467 460.952 81.1059 461.278 81.131C461.953 81.1339 462.612 81.3359 463.173 81.7117L462.76 82.5035C462.31 82.1789 461.772 81.998 461.217 81.9844C461.014 81.958 460.808 81.9755 460.613 82.0356C460.418 82.0958 460.238 82.1972 460.085 82.3331C459.932 82.469 459.81 82.6362 459.727 82.8235C459.644 83.0107 459.602 83.2137 459.603 83.4186C459.603 84.0169 460.007 84.492 461.059 84.9759C462.813 85.7766 463.339 86.3749 463.339 87.5187C463.334 87.8553 463.261 88.1874 463.124 88.4949C462.988 88.8025 462.791 89.0792 462.545 89.3085C462.299 89.5377 462.01 89.7148 461.694 89.8291C461.379 89.9434 461.043 89.9925 460.708 89.9735Z" fill="#002E6D"/>
</g>
<defs>
<clipPath id="clip0_1208_1716">
<rect width="463.918" height="90" fill="white"/>
</clipPath>
</defs>
</svg>
