<svg viewBox="0 0 96 96" xmlns="http://www.w3.org/2000/svg">
  <defs><clipPath id="hpsq"><rect x="9" y="9" width="78" height="78" rx="16"/></clipPath></defs>
  <g clip-path="url(#hpsq)">
    <rect x="9" y="9" width="78" height="78" fill="#009BDE"/>
    <path d="M6 70 L90 30 L90 90 L6 90 Z" fill="#002E6D"/>
    <path d="M6 70 L90 30" stroke="#fff" stroke-width="6"/>
  </g>
  <!-- contorno (silueta) detras del grupo: borde navy para separar del fondo -->
  <g fill="#002E6D" stroke="#002E6D" stroke-width="2.5" stroke-linejoin="round" stroke-linecap="round">
    <path d="M19.4 73.4 A12.6 15.6 0 0 1 44.6 73.4 Z"/>
    <circle cx="32" cy="53" r="6"/>
    <path d="M51.4 73.4 A12.6 15.6 0 0 1 76.6 73.4 Z"/>
    <circle cx="64" cy="53" r="6"/>
    <path d="M33.3 67.8 A14.7 18.2 0 0 1 62.7 67.8 Z"/>
    <circle cx="48" cy="44" r="7"/>
  </g>
  <!-- personas en blanco -->
  <g fill="#fff">
    <path d="M19.4 73.4 A12.6 15.6 0 0 1 44.6 73.4 Z"/>
    <circle cx="32" cy="53" r="6"/>
    <path d="M51.4 73.4 A12.6 15.6 0 0 1 76.6 73.4 Z"/>
    <circle cx="64" cy="53" r="6"/>
    <path d="M33.3 67.8 A14.7 18.2 0 0 1 62.7 67.8 Z"/>
    <circle cx="48" cy="44" r="7"/>
  </g>
</svg>
